<mxfile host="65bd71144e">
    <diagram id="-QDaUGAJi-09GfKxPS3U" name="PÃ¡gina-1">
        <mxGraphModel dx="559" dy="414" grid="1" gridSize="10" guides="1" tooltips="1" connect="1" arrows="1" fold="1" page="1" pageScale="1" pageWidth="827" pageHeight="1169" math="0" shadow="0">
            <root>
                <mxCell id="0"/>
                <mxCell id="1" parent="0"/>
                <mxCell id="2" value="" style="whiteSpace=wrap;html=1;" parent="1" vertex="1">
                    <mxGeometry x="190" y="130" width="612.22" height="290" as="geometry"/>
                </mxCell>
                <mxCell id="8" style="edgeStyle=none;html=1;entryX=0;entryY=0.5;entryDx=0;entryDy=0;" parent="1" source="3" target="7" edge="1">
                    <mxGeometry relative="1" as="geometry"/>
                </mxCell>
                <mxCell id="3" value="req" style="ellipse;whiteSpace=wrap;html=1;" parent="1" vertex="1">
                    <mxGeometry x="210" y="140" width="40" height="40" as="geometry"/>
                </mxCell>
                <mxCell id="11" style="edgeStyle=none;html=1;entryX=0;entryY=0.5;entryDx=0;entryDy=0;fontSize=7;" parent="1" source="7" target="9" edge="1">
                    <mxGeometry relative="1" as="geometry"/>
                </mxCell>
                <mxCell id="12" style="edgeStyle=none;html=1;entryX=0;entryY=0.5;entryDx=0;entryDy=0;fontSize=7;" parent="1" source="7" target="10" edge="1">
                    <mxGeometry relative="1" as="geometry"/>
                </mxCell>
                <mxCell id="7" value="&lt;font style=&quot;font-size: 7px;&quot;&gt;tem id na req&lt;/font&gt;" style="rhombus;whiteSpace=wrap;html=1;" parent="1" vertex="1">
                    <mxGeometry x="250" y="190" width="70" height="70" as="geometry"/>
                </mxCell>
                <mxCell id="14" style="edgeStyle=none;html=1;entryX=0;entryY=0.5;entryDx=0;entryDy=0;fontSize=7;" parent="1" source="9" target="13" edge="1">
                    <mxGeometry relative="1" as="geometry"/>
                </mxCell>
                <mxCell id="9" value="se sim" style="whiteSpace=wrap;html=1;fontSize=7;" parent="1" vertex="1">
                    <mxGeometry x="354" y="160" width="56" height="40" as="geometry"/>
                </mxCell>
                <mxCell id="20" style="edgeStyle=none;html=1;fontSize=7;" parent="1" source="10" target="16" edge="1">
                    <mxGeometry relative="1" as="geometry"/>
                </mxCell>
                <mxCell id="10" value="se nao&amp;nbsp;" style="whiteSpace=wrap;html=1;fontSize=7;" parent="1" vertex="1">
                    <mxGeometry x="330" y="295" width="56" height="40" as="geometry"/>
                </mxCell>
                <mxCell id="27" style="edgeStyle=none;html=1;fontSize=6;" edge="1" parent="1" source="13" target="26">
                    <mxGeometry relative="1" as="geometry"/>
                </mxCell>
                <mxCell id="13" value="fazer um requisicao a api com esse id" style="whiteSpace=wrap;html=1;fontSize=7;" parent="1" vertex="1">
                    <mxGeometry x="440" y="155" width="50" height="50" as="geometry"/>
                </mxCell>
                <mxCell id="19" style="edgeStyle=none;html=1;entryX=0;entryY=0.5;entryDx=0;entryDy=0;fontSize=7;" parent="1" source="16" target="18" edge="1">
                    <mxGeometry relative="1" as="geometry"/>
                </mxCell>
                <mxCell id="16" value="fazer um requisicao a api para pega todas as empresa&amp;nbsp;" style="whiteSpace=wrap;html=1;fontSize=7;" parent="1" vertex="1">
                    <mxGeometry x="440" y="290" width="50" height="50" as="geometry"/>
                </mxCell>
                <mxCell id="24" style="edgeStyle=none;html=1;fontSize=7;entryX=0;entryY=1;entryDx=0;entryDy=0;" parent="1" source="18" target="7" edge="1">
                    <mxGeometry relative="1" as="geometry">
                        <Array as="points">
                            <mxPoint x="490" y="370"/>
                            <mxPoint x="380" y="370"/>
                            <mxPoint x="230" y="340"/>
                        </Array>
                    </mxGeometry>
                </mxCell>
                <mxCell id="18" value="espera o user escolher uma" style="ellipse;whiteSpace=wrap;html=1;fontSize=7;" parent="1" vertex="1">
                    <mxGeometry x="520" y="290" width="50" height="50" as="geometry"/>
                </mxCell>
                <mxCell id="28" style="edgeStyle=none;html=1;entryX=0.49;entryY=0.414;entryDx=0;entryDy=0;entryPerimeter=0;fontSize=6;" edge="1" parent="1" source="26" target="2">
                    <mxGeometry relative="1" as="geometry"/>
                </mxCell>
                <mxCell id="32" style="edgeStyle=none;html=1;fontSize=10;" edge="1" parent="1" source="26" target="31">
                    <mxGeometry relative="1" as="geometry"/>
                </mxCell>
                <mxCell id="26" value="&lt;font style=&quot;font-size: 6px;&quot;&gt;o id e reconhecido em banco&lt;/font&gt;" style="rhombus;whiteSpace=wrap;html=1;spacingRight=0;spacingBottom=0;spacing=7;" vertex="1" parent="1">
                    <mxGeometry x="520" y="160" width="60" height="60" as="geometry"/>
                </mxCell>
                <mxCell id="30" style="edgeStyle=none;html=1;fontSize=10;" edge="1" parent="1" source="29" target="16">
                    <mxGeometry relative="1" as="geometry"/>
                </mxCell>
                <mxCell id="29" value="&lt;font style=&quot;font-size: 10px;&quot;&gt;se nao&lt;/font&gt;" style="whiteSpace=wrap;html=1;fontSize=6;" vertex="1" parent="1">
                    <mxGeometry x="440" y="220" width="50" height="50" as="geometry"/>
                </mxCell>
                <mxCell id="47" style="edgeStyle=none;html=1;exitX=0.5;exitY=1;exitDx=0;exitDy=0;fontSize=10;" edge="1" parent="1" source="31" target="46">
                    <mxGeometry relative="1" as="geometry">
                        <Array as="points">
                            <mxPoint x="620" y="265"/>
                        </Array>
                    </mxGeometry>
                </mxCell>
                <mxCell id="31" value="se sim" style="whiteSpace=wrap;html=1;fontSize=10;" vertex="1" parent="1">
                    <mxGeometry x="600" y="165" width="40" height="40" as="geometry"/>
                </mxCell>
                <mxCell id="46" value="carrega&lt;br&gt;&amp;nbsp;home" style="whiteSpace=wrap;html=1;fontSize=10;rotation=0;" vertex="1" parent="1">
                    <mxGeometry x="700" y="190" width="70" height="160" as="geometry"/>
                </mxCell>
            </root>
        </mxGraphModel>
    </diagram>
</mxfile>